<?xml version="1.0" encoding="UTF-8" standalone="no"?>
<!-- Created with Inkscape (http://www.inkscape.org/) -->

<svg
   version="1.1"
   id="svg2"
   xml:space="preserve"
   width="2620.3467"
   height="2654.6667"
   viewBox="0 0 2620.3467 2654.6667"
   sodipodi:docname="Jack In The Box 2022.ai"
   xmlns:inkscape="http://www.inkscape.org/namespaces/inkscape"
   xmlns:sodipodi="http://sodipodi.sourceforge.net/DTD/sodipodi-0.dtd"
   xmlns="http://www.w3.org/2000/svg"
   xmlns:svg="http://www.w3.org/2000/svg"><defs
     id="defs6"><clipPath
       clipPathUnits="userSpaceOnUse"
       id="clipPath16"><path
         d="M 0,1991 H 1965.259 V 0 H 0 Z"
         id="path14" /></clipPath></defs><sodipodi:namedview
     id="namedview4"
     pagecolor="#ffffff"
     bordercolor="#666666"
     borderopacity="1.0"
     inkscape:pageshadow="2"
     inkscape:pageopacity="0.0"
     inkscape:pagecheckerboard="0" /><g
     id="g8"
     inkscape:groupmode="layer"
     inkscape:label="Jack In The Box 2022"
     transform="matrix(1.3333333,0,0,-1.3333333,0,2654.6667)"><g
       id="g10"><g
         id="g12"
         clip-path="url(#clipPath16)"><g
           id="g18"
           transform="translate(1914.5916,1694.4269)"><path
             d="M 0,0 C -23.864,26.415 -56.581,47.121 -87.599,55.458 L -921.16,295.049 c -0.277,0.08 -0.557,0.135 -0.834,0.208 -0.396,0.105 -0.792,0.206 -1.191,0.298 -0.59,0.136 -1.182,0.253 -1.776,0.361 -0.377,0.069 -0.752,0.141 -1.131,0.199 -0.661,0.1 -1.323,0.174 -1.985,0.24 -0.317,0.032 -0.631,0.076 -0.948,0.099 -0.982,0.075 -1.965,0.119 -2.947,0.119 h -0.002 -0.003 c -0.981,0 -1.964,-0.044 -2.947,-0.119 -0.316,-0.023 -0.63,-0.067 -0.945,-0.099 -0.664,-0.066 -1.328,-0.14 -1.991,-0.241 -0.375,-0.057 -0.748,-0.129 -1.121,-0.197 -0.598,-0.109 -1.193,-0.226 -1.788,-0.363 -0.395,-0.092 -0.788,-0.192 -1.18,-0.295 -0.28,-0.074 -0.561,-0.13 -0.839,-0.21 L -1776.325,55.458 c -31.018,-8.337 -63.734,-29.043 -87.598,-55.458 -33.148,-36.689 -50.669,-84.218 -50.669,-137.449 v -813.664 c 0,-53.202 17.513,-100.715 50.644,-137.403 23.843,-26.402 56.533,-47.115 87.525,-55.473 l 833.63,-239.719 c 0.283,-0.082 0.568,-0.138 0.852,-0.213 0.388,-0.102 0.775,-0.201 1.165,-0.291 0.6,-0.139 1.202,-0.257 1.806,-0.367 0.367,-0.067 0.733,-0.138 1.103,-0.194 0.674,-0.103 1.349,-0.178 2.025,-0.245 0.304,-0.031 0.606,-0.073 0.91,-0.096 0.986,-0.074 1.971,-0.119 2.955,-0.119 0.026,0 0.051,0 0.077,0 0.955,10e-4 1.912,0.043 2.868,0.115 0.328,0.025 0.652,0.07 0.979,0.103 0.653,0.065 1.306,0.137 1.958,0.236 0.382,0.058 0.76,0.132 1.14,0.201 0.592,0.108 1.182,0.225 1.771,0.36 0.398,0.092 0.794,0.193 1.189,0.297 0.279,0.074 0.561,0.13 0.839,0.21 l 833.647,239.716 c 30.995,8.357 63.688,29.071 87.533,55.476 33.132,36.688 50.644,84.201 50.644,137.403 v 813.664 C 50.668,-84.218 33.147,-36.689 0,0"
             style="fill:#ffffff;fill-opacity:1;fill-rule:nonzero;stroke:none"
             id="path20" /></g><g
           id="g22"
           transform="translate(982.6171,1951.8536)"><path
             d="m 0,0 v -1603.513 l -833.963,239.814 c -37.878,10.085 -109.508,55.509 -109.508,155.159 v 813.665 c 0,99.699 71.656,145.122 109.584,155.184 z"
             style="fill:#e31635;fill-opacity:1;fill-rule:nonzero;stroke:none"
             id="path24" /></g><g
           id="g26"
           transform="translate(982.6171,1951.8536)"><path
             d="m 0,0 v -1603.513 l 833.988,239.814 c 37.877,10.085 109.508,55.509 109.508,155.159 v 813.665 c 0,99.699 -71.655,145.122 -109.584,155.184 z"
             style="fill:#b71a2e;fill-opacity:1;fill-rule:nonzero;stroke:none"
             id="path28" /></g><g
           id="g30"
           transform="translate(539.2345,1070.2177)"><path
             d="m 0,0 c -2.893,-58.503 -5.584,-95.702 -10.689,-149.977 -3.345,-36.044 -10.614,-69.795 -35.413,-67.833 -16.072,3.647 -35.011,12.45 -44.87,77.919 -9.859,65.441 -0.327,128.9 9.004,180.482 5.257,29.302 20.7,59.559 32.999,71.156 32.218,30.256 52.213,3.797 51.836,-50.205 C 2.666,35.765 0.604,11.796 0,0 m 444.547,-137.905 c -20.976,-39.538 -108.1,-135.516 -158,-121.958 -44.945,12.247 -71.907,53.093 -76.157,169.494 -3.471,95.723 27.087,238.909 73.064,260.542 5.608,2.64 3.898,2.364 8.929,-0.832 9.28,-5.886 30.86,-19.567 31.011,-124.12 0.05,-20.626 -2.364,-44.846 -3.622,-57.824 -1.107,-10.939 -1.107,-10.939 1.509,-12.048 6.69,-2.867 20.523,-5.885 50.277,-5.784 30.584,0.178 33.829,24.27 35.791,38.657 l 0.175,1.36 c 15.72,115.419 -1.559,202.92 -45.096,246.455 -17.907,17.857 -43.914,25.606 -67.279,22.385 -75.63,-9.382 -191.451,-188.76 -159.509,-490.623 -0.075,-14.261 -6.992,-22.864 -14.537,-26.158 -10.891,-2.944 -15.393,-0.678 -25.956,10.764 -10.564,11.443 -20.775,39.462 -23.919,70.173 -4.125,40.217 -2.44,190.872 32.521,348.42 5.533,24.924 6.011,26.91 0,33.551 -4.829,5.431 -13.306,5.606 -28.17,3.998 l -7.847,-0.931 C 52.138,225.955 46.655,235.187 39.99,205.609 32.646,172.988 15.418,195.097 4.955,201.182 c -15.569,10.362 -45.272,14.562 -66.852,2.567 -31.917,-17.706 -84.86,-83.704 -96.153,-238.283 -0.755,5.484 -1.333,9.632 -1.585,11.621 -28.345,262.024 -85.011,540.422 -87.651,551.336 -6.188,19.948 -62.224,31.869 -72.486,29.327 -6.263,-1.458 -0.679,-11.82 12.752,-99.874 34.683,-227.14 81.489,-625.436 47.887,-730.241 -14.864,-46.277 -75.151,-60.765 -104.779,-16.751 -34.508,51.135 -40.871,84.56 -50.127,112.478 0,0 -5.282,-2.113 -12.198,-8.729 -9.205,-8.852 -8.702,-8.75 -7.52,-23.288 2.59,-32.243 16.423,-95.047 45.448,-141.954 52.717,-85.263 136.873,-83.451 179.277,-47.512 26.334,22.336 57.32,61.472 63.231,153.726 1.609,24.749 1.66,52.187 1.257,74.195 5.785,-34.307 18.411,-95.475 55.157,-118.035 27.389,-16.824 71.605,-17.177 94.845,4.05 19.769,21.581 24.924,34.66 27.088,41.451 3.797,-1.511 40.594,-118.992 112.576,-66.553 26.032,18.94 27.843,40.622 47.058,15.041 66.374,-88.505 177.92,-51.082 251.462,40.923 v 0.024 c 11.318,13.254 31.262,40.896 37.072,57.294 1.384,2.514 -36.142,58.149 -36.167,58.1"
             style="fill:#ffffff;fill-opacity:1;fill-rule:nonzero;stroke:none"
             id="path32" /></g><g
           id="g34"
           transform="translate(1820.3779,1045.0297)"><path
             d="m 0,0 c -9.985,-4.203 -13.984,-12.827 -13.984,-12.827 -32.018,-167.005 -125.102,-290.547 -274.274,-309.134 -118.336,-14.765 -229.555,23.791 -304.43,151.383 0,0 -32.093,49.701 -53.219,129.529 -4.1,16.426 68.838,85.84 158.527,259.006 13.004,25.179 48.668,111.824 46.882,120.577 -2.867,28.32 -20.096,42.455 -40.166,49.12 -93.764,-156.289 -228.625,-328.098 -229.983,-299.198 17.858,229.98 -0.05,599.327 -4.477,606.821 -4.803,8.149 -39.235,4.879 -48.868,4.879 -9.608,0 -17.606,-6.512 -17.606,-6.512 0,0 -12.5,-27.291 -22.083,-270.277 -4.502,-114.209 -8.551,-341.223 -8.551,-341.223 0,0 -6.011,-163.409 -25.529,-196.709 l 0.201,-113.708 c 10.413,12.348 17.154,21.479 27.918,38.807 -0.201,-19.692 -0.327,-41.098 0,-54.048 1.585,-63.559 7.998,-104.682 20.825,-116.075 12.827,-11.443 67.884,0.58 75.882,10.389 8.023,9.809 -8.829,187.802 -6.364,203.675 1.811,6.788 5.659,2.742 8.954,-4.354 85.414,-185.413 246.004,-278.901 398.068,-258.376 169.644,22.913 285.768,178.523 321.985,388.661 0,0 9.256,27.54 -9.708,19.594"
             style="fill:#f0efe7;fill-opacity:1;fill-rule:nonzero;stroke:none"
             id="path36" /></g><g
           id="g38"
           transform="translate(207.9584,265.2356)"><path
             d="m 0,0 c -7.671,0 -14.336,-2.769 -19.794,-8.225 -5.433,-5.459 -8.199,-12.124 -8.199,-19.821 0,-7.971 2.791,-14.839 8.249,-20.42 5.483,-5.61 12.224,-8.477 20.021,-8.477 7.595,0 14.21,2.815 19.668,8.323 5.407,5.508 8.174,12.25 8.174,20.021 0,7.872 -2.792,14.688 -8.25,20.196 C 14.386,-2.818 7.696,0 0,0"
             style="fill:#e31635;fill-opacity:1;fill-rule:nonzero;stroke:none"
             id="path40" /></g><path
           d="m 179.804,4.894 h 56.263 V 203.69 h -56.263 z"
           style="fill:#e31635;fill-opacity:1;fill-rule:nonzero;stroke:none"
           id="path42" /><g
           id="g44"
           transform="translate(364.1421,208.6056)"><path
             d="m 0,0 c -9.708,0 -19.316,-1.913 -28.597,-5.661 -7.193,-2.917 -15.091,-7.67 -23.567,-14.108 v 14.863 h -56.238 v -198.796 h 56.238 v 80.611 c 0,19.367 0.679,32.016 1.987,37.626 2.465,10.512 6.892,18.814 13.18,24.672 6.136,5.735 13.33,8.553 21.931,8.553 6.54,0 11.821,-1.636 16.147,-4.98 4.352,-3.346 7.345,-8.176 9.155,-14.764 1.912,-7.092 2.893,-21.931 2.893,-44.116 v -87.602 h 55.735 v 130.008 c 0,22.962 -5.986,40.695 -17.832,52.666 C 37.123,-7.068 19.945,0 0,0"
             style="fill:#e31635;fill-opacity:1;fill-rule:nonzero;stroke:none"
             id="path46" /></g><g
           id="g48"
           transform="translate(615.0076,254.5636)"><path
             d="m 0,0 h -56.263 v -50.858 h -24.498 v -49.624 h 24.498 V -249.651 H 0 v 149.169 h 28.32 v 49.624 H 0 Z"
             style="fill:#e31635;fill-opacity:1;fill-rule:nonzero;stroke:none"
             id="path50" /></g><g
           id="g52"
           transform="translate(764.8004,208.6056)"><path
             d="m 0,0 c -10.212,0 -20.423,-2.14 -30.357,-6.389 -7.42,-3.144 -14.865,-7.547 -22.234,-13.104 v 65.442 h -55.911 v -249.651 h 55.911 v 80.685 c 0,19.971 0.679,32.823 1.987,38.181 2.49,10.187 6.916,18.311 13.179,24.095 6.187,5.707 13.38,8.501 22.032,8.501 6.565,0 11.872,-1.612 16.223,-4.906 4.276,-3.242 7.369,-8.348 9.23,-15.216 1.987,-7.421 2.993,-22.108 2.993,-43.661 v -87.679 h 55.559 v 130.008 c 0,22.962 -5.986,40.744 -17.857,52.841 C 37.048,-7.019 19.97,0 0,0"
             style="fill:#e31635;fill-opacity:1;fill-rule:nonzero;stroke:none"
             id="path54" /></g><g
           id="g56"
           transform="translate(908.2928,132.3538)"><path
             d="m 0,0 c 4.175,7.872 8.627,13.58 13.229,16.975 9.231,6.868 20.172,10.362 32.471,10.362 11.293,0 21.328,-3.092 29.854,-9.18 C 82.345,13.303 87.375,7.19 90.594,0 Z m 43.361,76.258 c -29.276,0 -54,-10.113 -73.442,-30.057 -19.442,-19.92 -29.301,-45.246 -29.301,-75.304 0,-29.375 9.91,-54.173 29.402,-73.743 19.517,-19.566 45.071,-29.502 75.956,-29.502 19.819,0 37.199,3.599 51.711,10.666 14.563,7.092 27.239,18.182 37.626,32.947 l 2.943,4.151 -47.486,22.283 -2.112,-2.038 C 76.535,-76.107 62.475,-81.843 45.624,-81.843 c -13.833,0 -25.302,3.697 -34.105,10.992 -7.671,6.386 -12.676,14.51 -15.241,24.721 h 152.34 l 0.252,13.355 c 0,32.471 -9.885,59.056 -29.377,78.976 C 99.976,66.145 74.347,76.258 43.361,76.258"
             style="fill:#e31635;fill-opacity:1;fill-rule:nonzero;stroke:none"
             id="path58" /></g><g
           id="g60"
           transform="translate(1318.7703,104.4824)"><path
             d="m 0,0 c 0,-15.471 -4.527,-27.767 -13.808,-37.653 -9.205,-9.809 -20.222,-14.587 -33.703,-14.587 -13.933,0 -25.176,4.704 -34.331,14.335 -9.08,9.558 -13.707,22.361 -13.707,38.08 0,15.544 4.476,27.742 13.682,37.248 9.155,9.484 20.398,14.111 34.356,14.111 13.833,0 24.925,-4.679 33.98,-14.311 C -4.427,27.515 0,15.342 0,0 m -37.526,104.123 c -11.946,0 -23.34,-2.287 -33.878,-6.816 -7.697,-3.319 -15.091,-7.896 -22.033,-13.681 v 66.449 h -55.911 V -99.576 h 55.911 v 14.939 c 7.344,-5.983 14.814,-10.561 22.259,-13.656 9.91,-4.099 20.75,-6.186 32.244,-6.186 25.704,0 48.215,10.085 66.927,29.928 18.662,19.821 28.094,44.721 28.094,74.02 0,30.358 -9.13,55.635 -27.188,75.128 -18.134,19.594 -40.494,29.526 -66.425,29.526"
             style="fill:#e31635;fill-opacity:1;fill-rule:nonzero;stroke:none"
             id="path62" /></g><g
           id="g64"
           transform="translate(1538.1088,104.3043)"><path
             d="m 0,0 c 0,-15.317 -4.477,-27.466 -13.708,-37.1 -9.155,-9.583 -20.372,-14.262 -34.23,-14.262 -13.859,0 -24.975,4.606 -33.954,14.087 -9.055,9.508 -13.456,21.706 -13.456,37.275 0,15.09 4.451,27.085 13.607,36.668 9.129,9.533 20.246,14.162 33.979,14.162 14.084,0 25.327,-4.577 34.331,-13.984 C -4.402,27.362 0,15.314 0,0 m 56.615,0.175 c 0,18.51 -4.653,35.992 -13.858,51.963 -9.205,15.996 -22.184,28.824 -38.582,38.129 -16.373,9.306 -34.13,14.034 -52.717,14.034 -25.805,0 -48.944,-9.081 -68.813,-26.987 -22.611,-20.573 -34.08,-46.655 -34.08,-77.492 0,-28.771 10.136,-53.597 30.181,-73.743 20.02,-20.147 44.543,-30.383 72.888,-30.383 19.19,0 37.023,4.63 52.994,13.782 15.996,9.131 28.798,22.007 38.053,38.206 9.256,16.223 13.934,33.879 13.934,52.491"
             style="fill:#e31635;fill-opacity:1;fill-rule:nonzero;stroke:none"
             id="path66" /></g><g
           id="g68"
           transform="translate(1709.3153,109.9136)"><path
             d="M 0,0 67.656,93.786 H 2.641 L -32.596,44.945 -68.034,93.786 h -65.947 l 68.487,-94.44 -75.303,-104.353 h 65.041 l 42.858,59.405 43.084,-59.405 h 65.946 z"
             style="fill:#e31635;fill-opacity:1;fill-rule:nonzero;stroke:none"
             id="path70" /></g></g></g></g></svg>
